<svg width="116" height="15" viewBox="0 0 116 15" fill="none" xmlns="http://www.w3.org/2000/svg">
<path d="M2.88003 12.8C2.93336 13.0133 2.96003 13.28 2.96003 13.6C2.96003 13.9067 2.93336 14.1733 2.88003 14.4H0.0800293C0.0266961 14.1733 2.94447e-05 13.9067 2.94447e-05 13.6C2.94447e-05 13.28 0.0266961 13.0133 0.0800293 12.8C0.0266961 12.5733 2.94447e-05 12.3067 2.94447e-05 12C2.94447e-05 11.68 0.0266961 11.4133 0.0800293 11.2C0.0266961 10.9733 2.94447e-05 10.7067 2.94447e-05 10.4C2.94447e-05 10.08 0.0266961 9.81334 0.0800293 9.6C0.0266961 9.37334 2.94447e-05 9.10667 2.94447e-05 8.8C2.94447e-05 8.48 0.0266961 8.21334 0.0800293 8C0.0266961 7.77334 2.94447e-05 7.50667 2.94447e-05 7.2C2.94447e-05 6.88 0.0266961 6.61334 0.0800293 6.4C0.0266961 6.17334 2.94447e-05 5.90667 2.94447e-05 5.6C2.94447e-05 5.28 0.0266961 5.01334 0.0800293 4.8C0.0266961 4.57334 2.94447e-05 4.30667 2.94447e-05 4C2.94447e-05 3.68 0.0266961 3.41334 0.0800293 3.2C0.0266961 2.97334 2.94447e-05 2.70667 2.94447e-05 2.4C2.94447e-05 2.08 0.0266961 1.81334 0.0800293 1.6C0.0266961 1.37334 2.94447e-05 1.10667 2.94447e-05 0.800003C2.94447e-05 0.480003 0.0266961 0.213336 0.0800293 2.14577e-06H2.88003C2.93336 0.213336 2.96003 0.480003 2.96003 0.800003C2.96003 1.10667 2.93336 1.37334 2.88003 1.6H1.68003C1.73336 1.81334 1.76003 2.08 1.76003 2.4C1.76003 2.70667 1.73336 2.97334 1.68003 3.2C1.73336 3.41334 1.76003 3.68 1.76003 4C1.76003 4.30667 1.73336 4.57334 1.68003 4.8C1.73336 5.01334 1.76003 5.28 1.76003 5.6C1.76003 5.90667 1.73336 6.17334 1.68003 6.4C1.73336 6.61334 1.76003 6.88 1.76003 7.2C1.76003 7.50667 1.73336 7.77334 1.68003 8C1.73336 8.21334 1.76003 8.48 1.76003 8.8C1.76003 9.10667 1.73336 9.37334 1.68003 9.6C1.73336 9.81334 1.76003 10.08 1.76003 10.4C1.76003 10.7067 1.73336 10.9733 1.68003 11.2C1.73336 11.4133 1.76003 11.68 1.76003 12C1.76003 12.3067 1.73336 12.5733 1.68003 12.8H2.88003ZM23.3757 5.6C23.3757 5.90667 23.349 6.17334 23.2957 6.4H22.4957C22.549 6.61334 22.5757 6.88 22.5757 7.2C22.5757 7.50667 22.549 7.77334 22.4957 8H23.2957C23.349 8.21334 23.3757 8.48 23.3757 8.8C23.3757 9.10667 23.349 9.37334 23.2957 9.6C23.349 9.81334 23.3757 10.08 23.3757 10.4C23.3757 10.7067 23.349 10.9733 23.2957 11.2H22.4957C22.549 11.4133 22.5757 11.68 22.5757 12C22.5757 12.3067 22.549 12.5733 22.4957 12.8H16.8957C16.8423 12.5733 16.8157 12.3067 16.8157 12C16.8157 11.68 16.8423 11.4133 16.8957 11.2C16.8423 10.9733 16.8157 10.7067 16.8157 10.4C16.8157 10.08 16.8423 9.81334 16.8957 9.6C16.8423 9.37334 16.8157 9.10667 16.8157 8.8C16.8157 8.48 16.8423 8.21334 16.8957 8C16.8423 7.77334 16.8157 7.50667 16.8157 7.2C16.8157 6.88 16.8423 6.61334 16.8957 6.4C16.8423 6.17334 16.8157 5.90667 16.8157 5.6C16.8157 5.28 16.8423 5.01334 16.8957 4.8C16.8423 4.57334 16.8157 4.30667 16.8157 4C16.8157 3.68 16.8423 3.41334 16.8957 3.2C16.8423 2.97334 16.8157 2.70667 16.8157 2.4C16.8157 2.08 16.8423 1.81334 16.8957 1.6H22.4957C22.549 1.81334 22.5757 2.08 22.5757 2.4C22.5757 2.70667 22.549 2.97334 22.4957 3.2H23.2957C23.349 3.41334 23.3757 3.68 23.3757 4C23.3757 4.30667 23.349 4.57334 23.2957 4.8C23.349 5.01334 23.3757 5.28 23.3757 5.6ZM21.6957 6.4C21.6423 6.17334 21.6157 5.90667 21.6157 5.6C21.6157 5.28 21.6423 5.01334 21.6957 4.8C21.6423 4.57334 21.6157 4.30667 21.6157 4C21.6157 3.68 21.6423 3.41334 21.6957 3.2H18.4957C18.549 3.41334 18.5757 3.68 18.5757 4C18.5757 4.30667 18.549 4.57334 18.4957 4.8C18.549 5.01334 18.5757 5.28 18.5757 5.6C18.5757 5.90667 18.549 6.17334 18.4957 6.4H21.6957ZM21.6957 9.6C21.6423 9.37334 21.6157 9.10667 21.6157 8.8C21.6157 8.48 21.6423 8.21334 21.6957 8H18.4957C18.549 8.21334 18.5757 8.48 18.5757 8.8C18.5757 9.10667 18.549 9.37334 18.4957 9.6C18.549 9.81334 18.5757 10.08 18.5757 10.4C18.5757 10.7067 18.549 10.9733 18.4957 11.2H21.6957C21.6423 10.9733 21.6157 10.7067 21.6157 10.4C21.6157 10.08 21.6423 9.81334 21.6957 9.6ZM32.7035 6.4C32.7568 6.61334 32.7835 6.88 32.7835 7.2C32.7835 7.50667 32.7568 7.77334 32.7035 8C32.7568 8.21334 32.7835 8.48 32.7835 8.8C32.7835 9.10667 32.7568 9.37334 32.7035 9.6H32.1035C32.1568 9.81334 32.1835 10.08 32.1835 10.4C32.1835 10.7067 32.1568 10.9733 32.1035 11.2H31.1035C31.1568 11.4133 31.1835 11.68 31.1835 12C31.1835 12.3067 31.1568 12.5733 31.1035 12.8H27.9035C27.8501 12.5733 27.8235 12.3067 27.8235 12C27.8235 11.68 27.8501 11.4133 27.9035 11.2H26.9035C26.8501 10.9733 26.8235 10.7067 26.8235 10.4C26.8235 10.08 26.8501 9.81334 26.9035 9.6H26.3035C26.2501 9.37334 26.2235 9.10667 26.2235 8.8C26.2235 8.48 26.2501 8.21334 26.3035 8C26.2501 7.77334 26.2235 7.50667 26.2235 7.2C26.2235 6.88 26.2501 6.61334 26.3035 6.4C26.2501 6.17334 26.2235 5.90667 26.2235 5.6C26.2235 5.28 26.2501 5.01334 26.3035 4.8H26.9035C26.8501 4.57334 26.8235 4.30667 26.8235 4C26.8235 3.68 26.8501 3.41334 26.9035 3.2H27.9035C27.8501 2.97334 27.8235 2.70667 27.8235 2.4C27.8235 2.08 27.8501 1.81334 27.9035 1.6H31.1035C31.1568 1.81334 31.1835 2.08 31.1835 2.4C31.1835 2.70667 31.1568 2.97334 31.1035 3.2H32.1035C32.1568 3.41334 32.1835 3.68 32.1835 4C32.1835 4.30667 32.1568 4.57334 32.1035 4.8H32.7035C32.7568 5.01334 32.7835 5.28 32.7835 5.6C32.7835 5.90667 32.7568 6.17334 32.7035 6.4ZM31.1035 9.6C31.0501 9.37334 31.0235 9.10667 31.0235 8.8C31.0235 8.48 31.0501 8.21334 31.1035 8C31.0501 7.77334 31.0235 7.50667 31.0235 7.2C31.0235 6.88 31.0501 6.61334 31.1035 6.4C31.0501 6.17334 31.0235 5.90667 31.0235 5.6C31.0235 5.28 31.0501 5.01334 31.1035 4.8H30.5035C30.4501 4.57334 30.4235 4.30667 30.4235 4C30.4235 3.68 30.4501 3.41334 30.5035 3.2H28.5035C28.5568 3.41334 28.5835 3.68 28.5835 4C28.5835 4.30667 28.5568 4.57334 28.5035 4.8H27.9035C27.9568 5.01334 27.9835 5.28 27.9835 5.6C27.9835 5.90667 27.9568 6.17334 27.9035 6.4C27.9568 6.61334 27.9835 6.88 27.9835 7.2C27.9835 7.50667 27.9568 7.77334 27.9035 8C27.9568 8.21334 27.9835 8.48 27.9835 8.8C27.9835 9.10667 27.9568 9.37334 27.9035 9.6H28.5035C28.5568 9.81334 28.5835 10.08 28.5835 10.4C28.5835 10.7067 28.5568 10.9733 28.5035 11.2H30.5035C30.4501 10.9733 30.4235 10.7067 30.4235 10.4C30.4235 10.08 30.4501 9.81334 30.5035 9.6H31.1035ZM42.1113 6.4C42.1646 6.61334 42.1913 6.88 42.1913 7.2C42.1913 7.50667 42.1646 7.77334 42.1113 8C42.1646 8.21334 42.1913 8.48 42.1913 8.8C42.1913 9.10667 42.1646 9.37334 42.1113 9.6H41.5113C41.5646 9.81334 41.5913 10.08 41.5913 10.4C41.5913 10.7067 41.5646 10.9733 41.5113 11.2H40.5113C40.5646 11.4133 40.5913 11.68 40.5913 12C40.5913 12.3067 40.5646 12.5733 40.5113 12.8H37.3113C37.2579 12.5733 37.2313 12.3067 37.2313 12C37.2313 11.68 37.2579 11.4133 37.3113 11.2H36.3113C36.2579 10.9733 36.2313 10.7067 36.2313 10.4C36.2313 10.08 36.2579 9.81334 36.3113 9.6H35.7113C35.6579 9.37334 35.6313 9.10667 35.6313 8.8C35.6313 8.48 35.6579 8.21334 35.7113 8C35.6579 7.77334 35.6313 7.50667 35.6313 7.2C35.6313 6.88 35.6579 6.61334 35.7113 6.4C35.6579 6.17334 35.6313 5.90667 35.6313 5.6C35.6313 5.28 35.6579 5.01334 35.7113 4.8H36.3113C36.2579 4.57334 36.2313 4.30667 36.2313 4C36.2313 3.68 36.2579 3.41334 36.3113 3.2H37.3113C37.2579 2.97334 37.2313 2.70667 37.2313 2.4C37.2313 2.08 37.2579 1.81334 37.3113 1.6H40.5113C40.5646 1.81334 40.5913 2.08 40.5913 2.4C40.5913 2.70667 40.5646 2.97334 40.5113 3.2H41.5113C41.5646 3.41334 41.5913 3.68 41.5913 4C41.5913 4.30667 41.5646 4.57334 41.5113 4.8H42.1113C42.1646 5.01334 42.1913 5.28 42.1913 5.6C42.1913 5.90667 42.1646 6.17334 42.1113 6.4ZM40.5113 9.6C40.4579 9.37334 40.4313 9.10667 40.4313 8.8C40.4313 8.48 40.4579 8.21334 40.5113 8C40.4579 7.77334 40.4313 7.50667 40.4313 7.2C40.4313 6.88 40.4579 6.61334 40.5113 6.4C40.4579 6.17334 40.4313 5.90667 40.4313 5.6C40.4313 5.28 40.4579 5.01334 40.5113 4.8H39.9113C39.8579 4.57334 39.8313 4.30667 39.8313 4C39.8313 3.68 39.8579 3.41334 39.9113 3.2H37.9113C37.9646 3.41334 37.9913 3.68 37.9913 4C37.9913 4.30667 37.9646 4.57334 37.9113 4.8H37.3113C37.3646 5.01334 37.3913 5.28 37.3913 5.6C37.3913 5.90667 37.3646 6.17334 37.3113 6.4C37.3646 6.61334 37.3913 6.88 37.3913 7.2C37.3913 7.50667 37.3646 7.77334 37.3113 8C37.3646 8.21334 37.3913 8.48 37.3913 8.8C37.3913 9.10667 37.3646 9.37334 37.3113 9.6H37.9113C37.9646 9.81334 37.9913 10.08 37.9913 10.4C37.9913 10.7067 37.9646 10.9733 37.9113 11.2H39.9113C39.8579 10.9733 39.8313 10.7067 39.8313 10.4C39.8313 10.08 39.8579 9.81334 39.9113 9.6H40.5113ZM51.5191 11.2C51.5724 11.4133 51.5991 11.68 51.5991 12C51.5991 12.3067 51.5724 12.5733 51.5191 12.8H49.9191C49.8658 12.5733 49.8391 12.3067 49.8391 12C49.8391 11.68 49.8658 11.4133 49.9191 11.2H49.3191C49.2658 10.9733 49.2391 10.7067 49.2391 10.4C49.2391 10.08 49.2658 9.81334 49.3191 9.6H48.1191C48.0658 9.37334 48.0391 9.10667 48.0391 8.8C48.0391 8.48 48.0658 8.21334 48.1191 8H46.7191C46.7724 8.21334 46.7991 8.48 46.7991 8.8C46.7991 9.10667 46.7724 9.37334 46.7191 9.6C46.7724 9.81334 46.7991 10.08 46.7991 10.4C46.7991 10.7067 46.7724 10.9733 46.7191 11.2C46.7724 11.4133 46.7991 11.68 46.7991 12C46.7991 12.3067 46.7724 12.5733 46.7191 12.8H45.1191C45.0658 12.5733 45.0391 12.3067 45.0391 12C45.0391 11.68 45.0658 11.4133 45.1191 11.2C45.0658 10.9733 45.0391 10.7067 45.0391 10.4C45.0391 10.08 45.0658 9.81334 45.1191 9.6C45.0658 9.37334 45.0391 9.10667 45.0391 8.8C45.0391 8.48 45.0658 8.21334 45.1191 8C45.0658 7.77334 45.0391 7.50667 45.0391 7.2C45.0391 6.88 45.0658 6.61334 45.1191 6.4C45.0658 6.17334 45.0391 5.90667 45.0391 5.6C45.0391 5.28 45.0658 5.01334 45.1191 4.8C45.0658 4.57334 45.0391 4.30667 45.0391 4C45.0391 3.68 45.0658 3.41334 45.1191 3.2C45.0658 2.97334 45.0391 2.70667 45.0391 2.4C45.0391 2.08 45.0658 1.81334 45.1191 1.6H46.7191C46.7724 1.81334 46.7991 2.08 46.7991 2.4C46.7991 2.70667 46.7724 2.97334 46.7191 3.2C46.7724 3.41334 46.7991 3.68 46.7991 4C46.7991 4.30667 46.7724 4.57334 46.7191 4.8C46.7724 5.01334 46.7991 5.28 46.7991 5.6C46.7991 5.90667 46.7724 6.17334 46.7191 6.4H48.1191C48.0658 6.17334 48.0391 5.90667 48.0391 5.6C48.0391 5.28 48.0658 5.01334 48.1191 4.8H49.3191C49.2658 4.57334 49.2391 4.30667 49.2391 4C49.2391 3.68 49.2658 3.41334 49.3191 3.2H49.9191C49.8658 2.97334 49.8391 2.70667 49.8391 2.4C49.8391 2.08 49.8658 1.81334 49.9191 1.6H51.5191C51.5724 1.81334 51.5991 2.08 51.5991 2.4C51.5991 2.70667 51.5724 2.97334 51.5191 3.2H50.9191C50.9724 3.41334 50.9991 3.68 50.9991 4C50.9991 4.30667 50.9724 4.57334 50.9191 4.8H49.7191C49.7724 5.01334 49.7991 5.28 49.7991 5.6C49.7991 5.90667 49.7724 6.17334 49.7191 6.4H48.7191C48.7724 6.61334 48.7991 6.88 48.7991 7.2C48.7991 7.50667 48.7724 7.77334 48.7191 8H49.7191C49.7724 8.21334 49.7991 8.48 49.7991 8.8C49.7991 9.10667 49.7724 9.37334 49.7191 9.6H50.9191C50.9724 9.81334 50.9991 10.08 50.9991 10.4C50.9991 10.7067 50.9724 10.9733 50.9191 11.2H51.5191ZM60.9269 3.2C60.9802 3.41334 61.0069 3.68 61.0069 4C61.0069 4.30667 60.9802 4.57334 60.9269 4.8C60.9802 5.01334 61.0069 5.28 61.0069 5.6C61.0069 5.90667 60.9802 6.17334 60.9269 6.4H60.3269C60.3802 6.61334 60.4069 6.88 60.4069 7.2C60.4069 7.50667 60.3802 7.77334 60.3269 8H59.7269C59.7802 8.21334 59.8069 8.48 59.8069 8.8C59.8069 9.10667 59.7802 9.37334 59.7269 9.6H59.3269C59.3802 9.81334 59.4069 10.08 59.4069 10.4C59.4069 10.7067 59.3802 10.9733 59.3269 11.2H58.5269C58.5802 11.4133 58.6069 11.68 58.6069 12C58.6069 12.3067 58.5802 12.5733 58.5269 12.8H56.9269C56.8736 12.5733 56.8469 12.3067 56.8469 12C56.8469 11.68 56.8736 11.4133 56.9269 11.2H56.1269C56.0736 10.9733 56.0469 10.7067 56.0469 10.4C56.0469 10.08 56.0736 9.81334 56.1269 9.6H55.7269C55.6736 9.37334 55.6469 9.10667 55.6469 8.8C55.6469 8.48 55.6736 8.21334 55.7269 8H55.1269C55.0736 7.77334 55.0469 7.50667 55.0469 7.2C55.0469 6.88 55.0736 6.61334 55.1269 6.4H54.5269C54.4736 6.17334 54.4469 5.90667 54.4469 5.6C54.4469 5.28 54.4736 5.01334 54.5269 4.8C54.4736 4.57334 54.4469 4.30667 54.4469 4C54.4469 3.68 54.4736 3.41334 54.5269 3.2C54.4736 2.97334 54.4469 2.70667 54.4469 2.4C54.4469 2.08 54.4736 1.81334 54.5269 1.6H56.1269C56.1802 1.81334 56.2069 2.08 56.2069 2.4C56.2069 2.70667 56.1802 2.97334 56.1269 3.2C56.1802 3.41334 56.2069 3.68 56.2069 4C56.2069 4.30667 56.1802 4.57334 56.1269 4.8C56.1802 5.01334 56.2069 5.28 56.2069 5.6C56.2069 5.90667 56.1802 6.17334 56.1269 6.4H56.7269C56.7802 6.61334 56.8069 6.88 56.8069 7.2C56.8069 7.50667 56.7802 7.77334 56.7269 8H57.3269C57.3802 8.21334 57.4069 8.48 57.4069 8.8C57.4069 9.10667 57.3802 9.37334 57.3269 9.6H58.1269C58.0736 9.37334 58.0469 9.10667 58.0469 8.8C58.0469 8.48 58.0736 8.21334 58.1269 8H58.7269C58.6736 7.77334 58.6469 7.50667 58.6469 7.2C58.6469 6.88 58.6736 6.61334 58.7269 6.4H59.3269C59.2736 6.17334 59.2469 5.90667 59.2469 5.6C59.2469 5.28 59.2736 5.01334 59.3269 4.8C59.2736 4.57334 59.2469 4.30667 59.2469 4C59.2469 3.68 59.2736 3.41334 59.3269 3.2C59.2736 2.97334 59.2469 2.70667 59.2469 2.4C59.2469 2.08 59.2736 1.81334 59.3269 1.6H60.9269C60.9802 1.81334 61.0069 2.08 61.0069 2.4C61.0069 2.70667 60.9802 2.97334 60.9269 3.2ZM70.4147 10.4C70.4147 10.7067 70.3881 10.9733 70.3347 11.2C70.3881 11.4133 70.4147 11.68 70.4147 12C70.4147 12.3067 70.3881 12.5733 70.3347 12.8H68.7347C68.6814 12.5733 68.6547 12.3067 68.6547 12C68.6547 11.68 68.6814 11.4133 68.7347 11.2C68.6814 10.9733 68.6547 10.7067 68.6547 10.4C68.6547 10.08 68.6814 9.81334 68.7347 9.6H65.5347C65.5881 9.81334 65.6147 10.08 65.6147 10.4C65.6147 10.7067 65.5881 10.9733 65.5347 11.2C65.5881 11.4133 65.6147 11.68 65.6147 12C65.6147 12.3067 65.5881 12.5733 65.5347 12.8H63.9347C63.8814 12.5733 63.8547 12.3067 63.8547 12C63.8547 11.68 63.8814 11.4133 63.9347 11.2C63.8814 10.9733 63.8547 10.7067 63.8547 10.4C63.8547 10.08 63.8814 9.81334 63.9347 9.6H64.5347C64.4814 9.37334 64.4547 9.10667 64.4547 8.8C64.4547 8.48 64.4814 8.21334 64.5347 8C64.4814 7.77334 64.4547 7.50667 64.4547 7.2C64.4547 6.88 64.4814 6.61334 64.5347 6.4H64.9347C64.8814 6.17334 64.8547 5.90667 64.8547 5.6C64.8547 5.28 64.8814 5.01334 64.9347 4.8H65.5347C65.4814 4.57334 65.4547 4.30667 65.4547 4C65.4547 3.68 65.4814 3.41334 65.5347 3.2H65.9347C65.8814 2.97334 65.8547 2.70667 65.8547 2.4C65.8547 2.08 65.8814 1.81334 65.9347 1.6H68.3347C68.3881 1.81334 68.4147 2.08 68.4147 2.4C68.4147 2.70667 68.3881 2.97334 68.3347 3.2H68.7347C68.7881 3.41334 68.8147 3.68 68.8147 4C68.8147 4.30667 68.7881 4.57334 68.7347 4.8H69.3347C69.3881 5.01334 69.4147 5.28 69.4147 5.6C69.4147 5.90667 69.3881 6.17334 69.3347 6.4H69.7347C69.7881 6.61334 69.8147 6.88 69.8147 7.2C69.8147 7.50667 69.7881 7.77334 69.7347 8C69.7881 8.21334 69.8147 8.48 69.8147 8.8C69.8147 9.10667 69.7881 9.37334 69.7347 9.6H70.3347C70.3881 9.81334 70.4147 10.08 70.4147 10.4ZM68.1347 8C68.0814 7.77334 68.0547 7.50667 68.0547 7.2C68.0547 6.88 68.0814 6.61334 68.1347 6.4H67.7347C67.6814 6.17334 67.6547 5.90667 67.6547 5.6C67.6547 5.28 67.6814 5.01334 67.7347 4.8H66.5347C66.5881 5.01334 66.6147 5.28 66.6147 5.6C66.6147 5.90667 66.5881 6.17334 66.5347 6.4H66.1347C66.1881 6.61334 66.2147 6.88 66.2147 7.2C66.2147 7.50667 66.1881 7.77334 66.1347 8H68.1347ZM79.7425 3.2C79.7959 3.41334 79.8225 3.68 79.8225 4C79.8225 4.30667 79.7959 4.57334 79.7425 4.8C79.7959 5.01334 79.8225 5.28 79.8225 5.6C79.8225 5.90667 79.7959 6.17334 79.7425 6.4C79.7959 6.61334 79.8225 6.88 79.8225 7.2C79.8225 7.50667 79.7959 7.77334 79.7425 8C79.7959 8.21334 79.8225 8.48 79.8225 8.8C79.8225 9.10667 79.7959 9.37334 79.7425 9.6C79.7959 9.81334 79.8225 10.08 79.8225 10.4C79.8225 10.7067 79.7959 10.9733 79.7425 11.2H78.9425C78.9959 11.4133 79.0225 11.68 79.0225 12C79.0225 12.3067 78.9959 12.5733 78.9425 12.8H74.1425C74.0892 12.5733 74.0625 12.3067 74.0625 12C74.0625 11.68 74.0892 11.4133 74.1425 11.2H73.3425C73.2892 10.9733 73.2625 10.7067 73.2625 10.4C73.2625 10.08 73.2892 9.81334 73.3425 9.6C73.2892 9.37334 73.2625 9.10667 73.2625 8.8C73.2625 8.48 73.2892 8.21334 73.3425 8C73.2892 7.77334 73.2625 7.50667 73.2625 7.2C73.2625 6.88 73.2892 6.61334 73.3425 6.4C73.2892 6.17334 73.2625 5.90667 73.2625 5.6C73.2625 5.28 73.2892 5.01334 73.3425 4.8C73.2892 4.57334 73.2625 4.30667 73.2625 4C73.2625 3.68 73.2892 3.41334 73.3425 3.2C73.2892 2.97334 73.2625 2.70667 73.2625 2.4C73.2625 2.08 73.2892 1.81334 73.3425 1.6H74.9425C74.9959 1.81334 75.0225 2.08 75.0225 2.4C75.0225 2.70667 74.9959 2.97334 74.9425 3.2C74.9959 3.41334 75.0225 3.68 75.0225 4C75.0225 4.30667 74.9959 4.57334 74.9425 4.8C74.9959 5.01334 75.0225 5.28 75.0225 5.6C75.0225 5.90667 74.9959 6.17334 74.9425 6.4C74.9959 6.61334 75.0225 6.88 75.0225 7.2C75.0225 7.50667 74.9959 7.77334 74.9425 8C74.9959 8.21334 75.0225 8.48 75.0225 8.8C75.0225 9.10667 74.9959 9.37334 74.9425 9.6C74.9959 9.81334 75.0225 10.08 75.0225 10.4C75.0225 10.7067 74.9959 10.9733 74.9425 11.2H78.1425C78.0892 10.9733 78.0625 10.7067 78.0625 10.4C78.0625 10.08 78.0892 9.81334 78.1425 9.6C78.0892 9.37334 78.0625 9.10667 78.0625 8.8C78.0625 8.48 78.0892 8.21334 78.1425 8C78.0892 7.77334 78.0625 7.50667 78.0625 7.2C78.0625 6.88 78.0892 6.61334 78.1425 6.4C78.0892 6.17334 78.0625 5.90667 78.0625 5.6C78.0625 5.28 78.0892 5.01334 78.1425 4.8C78.0892 4.57334 78.0625 4.30667 78.0625 4C78.0625 3.68 78.0892 3.41334 78.1425 3.2C78.0892 2.97334 78.0625 2.70667 78.0625 2.4C78.0625 2.08 78.0892 1.81334 78.1425 1.6H79.7425C79.7959 1.81334 79.8225 2.08 79.8225 2.4C79.8225 2.70667 79.7959 2.97334 79.7425 3.2ZM89.1503 11.2C89.2037 11.4133 89.2303 11.68 89.2303 12C89.2303 12.3067 89.2037 12.5733 89.1503 12.8H83.5503C83.497 12.5733 83.4703 12.3067 83.4703 12C83.4703 11.68 83.497 11.4133 83.5503 11.2C83.497 10.9733 83.4703 10.7067 83.4703 10.4C83.4703 10.08 83.497 9.81334 83.5503 9.6C83.497 9.37334 83.4703 9.10667 83.4703 8.8C83.4703 8.48 83.497 8.21334 83.5503 8C83.497 7.77334 83.4703 7.50667 83.4703 7.2C83.4703 6.88 83.497 6.61334 83.5503 6.4C83.497 6.17334 83.4703 5.90667 83.4703 5.6C83.4703 5.28 83.497 5.01334 83.5503 4.8C83.497 4.57334 83.4703 4.30667 83.4703 4C83.4703 3.68 83.497 3.41334 83.5503 3.2C83.497 2.97334 83.4703 2.70667 83.4703 2.4C83.4703 2.08 83.497 1.81334 83.5503 1.6H85.1503C85.2037 1.81334 85.2303 2.08 85.2303 2.4C85.2303 2.70667 85.2037 2.97334 85.1503 3.2C85.2037 3.41334 85.2303 3.68 85.2303 4C85.2303 4.30667 85.2037 4.57334 85.1503 4.8C85.2037 5.01334 85.2303 5.28 85.2303 5.6C85.2303 5.90667 85.2037 6.17334 85.1503 6.4C85.2037 6.61334 85.2303 6.88 85.2303 7.2C85.2303 7.50667 85.2037 7.77334 85.1503 8C85.2037 8.21334 85.2303 8.48 85.2303 8.8C85.2303 9.10667 85.2037 9.37334 85.1503 9.6C85.2037 9.81334 85.2303 10.08 85.2303 10.4C85.2303 10.7067 85.2037 10.9733 85.1503 11.2H89.1503ZM98.6382 2.4C98.6382 2.70667 98.6115 2.97334 98.5582 3.2H96.1582C96.2115 3.41334 96.2382 3.68 96.2382 4C96.2382 4.30667 96.2115 4.57334 96.1582 4.8C96.2115 5.01334 96.2382 5.28 96.2382 5.6C96.2382 5.90667 96.2115 6.17334 96.1582 6.4C96.2115 6.61334 96.2382 6.88 96.2382 7.2C96.2382 7.50667 96.2115 7.77334 96.1582 8C96.2115 8.21334 96.2382 8.48 96.2382 8.8C96.2382 9.10667 96.2115 9.37334 96.1582 9.6C96.2115 9.81334 96.2382 10.08 96.2382 10.4C96.2382 10.7067 96.2115 10.9733 96.1582 11.2C96.2115 11.4133 96.2382 11.68 96.2382 12C96.2382 12.3067 96.2115 12.5733 96.1582 12.8H94.5582C94.5048 12.5733 94.4782 12.3067 94.4782 12C94.4782 11.68 94.5048 11.4133 94.5582 11.2C94.5048 10.9733 94.4782 10.7067 94.4782 10.4C94.4782 10.08 94.5048 9.81334 94.5582 9.6C94.5048 9.37334 94.4782 9.10667 94.4782 8.8C94.4782 8.48 94.5048 8.21334 94.5582 8C94.5048 7.77334 94.4782 7.50667 94.4782 7.2C94.4782 6.88 94.5048 6.61334 94.5582 6.4C94.5048 6.17334 94.4782 5.90667 94.4782 5.6C94.4782 5.28 94.5048 5.01334 94.5582 4.8C94.5048 4.57334 94.4782 4.30667 94.4782 4C94.4782 3.68 94.5048 3.41334 94.5582 3.2H92.1582C92.1048 2.97334 92.0782 2.70667 92.0782 2.4C92.0782 2.08 92.1048 1.81334 92.1582 1.6H98.5582C98.6115 1.81334 98.6382 2.08 98.6382 2.4ZM115.374 1.6C115.427 1.81334 115.454 2.08 115.454 2.4C115.454 2.70667 115.427 2.97334 115.374 3.2C115.427 3.41334 115.454 3.68 115.454 4C115.454 4.30667 115.427 4.57334 115.374 4.8C115.427 5.01334 115.454 5.28 115.454 5.6C115.454 5.90667 115.427 6.17334 115.374 6.4C115.427 6.61334 115.454 6.88 115.454 7.2C115.454 7.50667 115.427 7.77334 115.374 8C115.427 8.21334 115.454 8.48 115.454 8.8C115.454 9.10667 115.427 9.37334 115.374 9.6C115.427 9.81334 115.454 10.08 115.454 10.4C115.454 10.7067 115.427 10.9733 115.374 11.2C115.427 11.4133 115.454 11.68 115.454 12C115.454 12.3067 115.427 12.5733 115.374 12.8C115.427 13.0133 115.454 13.28 115.454 13.6C115.454 13.9067 115.427 14.1733 115.374 14.4H112.574C112.52 14.1733 112.494 13.9067 112.494 13.6C112.494 13.28 112.52 13.0133 112.574 12.8H113.774C113.72 12.5733 113.694 12.3067 113.694 12C113.694 11.68 113.72 11.4133 113.774 11.2C113.72 10.9733 113.694 10.7067 113.694 10.4C113.694 10.08 113.72 9.81334 113.774 9.6C113.72 9.37334 113.694 9.10667 113.694 8.8C113.694 8.48 113.72 8.21334 113.774 8C113.72 7.77334 113.694 7.50667 113.694 7.2C113.694 6.88 113.72 6.61334 113.774 6.4C113.72 6.17334 113.694 5.90667 113.694 5.6C113.694 5.28 113.72 5.01334 113.774 4.8C113.72 4.57334 113.694 4.30667 113.694 4C113.694 3.68 113.72 3.41334 113.774 3.2C113.72 2.97334 113.694 2.70667 113.694 2.4C113.694 2.08 113.72 1.81334 113.774 1.6H112.574C112.52 1.37334 112.494 1.10667 112.494 0.800003C112.494 0.480003 112.52 0.213336 112.574 2.14577e-06H115.374C115.427 0.213336 115.454 0.480003 115.454 0.800003C115.454 1.10667 115.427 1.37334 115.374 1.6Z" fill="#30D90D"/>
</svg>
